<?xml version="1.0" encoding="UTF-8" standalone="no"?>
<svg
   xmlns:dc="http://purl.org/dc/elements/1.1/"
   xmlns:cc="http://creativecommons.org/ns#"
   xmlns:rdf="http://www.w3.org/1999/02/22-rdf-syntax-ns#"
   xmlns:svg="http://www.w3.org/2000/svg"
   xmlns="http://www.w3.org/2000/svg"
   version="1.1"
   id="svg2"
   viewBox="0 0 100 125"
   height="125"
   width="100">
  <defs
     id="defs4" />
  <metadata
     id="metadata7">
    <rdf:RDF>
      <cc:Work
         rdf:about="">
        <dc:format>image/svg+xml</dc:format>
        <dc:type
           rdf:resource="http://purl.org/dc/dcmitype/StillImage" />
        <dc:title></dc:title>
      </cc:Work>
    </rdf:RDF>
  </metadata>
  <g
     transform="translate(0,-75)"
     style="display:inline"
     id="layer4">
    <path
       id="path5653"
       d="m 41.835345,126.79034 c -10.727337,11.05906 -19.588203,27.54661 -13.487151,43.0728 4.054624,11.36582 12.642091,20.22529 20.579337,28.99296"
       style="display:inline;opacity:0.86600001;fill:none;fill-opacity:1;fill-rule:nonzero;stroke:#000000;stroke-width:2.5;stroke-linecap:butt;stroke-linejoin:miter;stroke-miterlimit:4;stroke-dasharray:none;stroke-dashoffset:4.92000008;stroke-opacity:1" />
  </g>
  <g
     transform="translate(0,-75)"
     style="display:inline"
     id="layer3">
    <path
       id="path4902"
       d="M 1.7098534,182.99642 17.862145,200 l 45.843032,0 14.291775,-12.53451 z"
       style="display:inline;opacity:1;fill:#898989;fill-opacity:1;fill-rule:nonzero;stroke:none;stroke-width:2.5;stroke-linecap:butt;stroke-linejoin:miter;stroke-miterlimit:4;stroke-dasharray:none;stroke-dashoffset:4.92000008;stroke-opacity:1" />
  </g>
  <g
     transform="translate(0,-75)"
     style="display:inline"
     id="layer2">
    <path
       id="path4756"
       d="m 45.285958,127.22827 c -1.418685,7.21292 -13.622304,11.07362 -9.601534,19.25021 4.045538,4.55631 12.302199,5.54988 16.508156,0.88789 1.054663,-5.26099 0.160667,-10.88779 0.195069,-16.31309 l -0.04493,-0.80205 -0.04928,-0.8018"
       style="opacity:1;fill:#d4d4d4;fill-opacity:1;fill-rule:nonzero;stroke:#000000;stroke-width:2.5;stroke-linecap:butt;stroke-linejoin:miter;stroke-miterlimit:4;stroke-dasharray:none;stroke-dashoffset:4.92000008;stroke-opacity:1" />
    <path
       id="path4760"
       d="m 55.45971,128.84381 c 2.241156,6.86266 -3.759402,15.54483 2.288701,21.16294 5.921551,3.78152 11.83729,-2.00383 17.27267,-3.98044 -4.391471,-6.82346 -11.773265,-11.40495 -15.609173,-18.89599"
       style="opacity:1;fill:#d4d4d4;fill-opacity:1;fill-rule:nonzero;stroke:#000000;stroke-width:2.5;stroke-linecap:butt;stroke-linejoin:miter;stroke-miterlimit:4;stroke-dasharray:none;stroke-dashoffset:4.92000008;stroke-opacity:1" />
    <path
       id="path4762"
       d="m 39.384701,122.27859 c -6.656317,4.24123 -7.28854,18.71621 -17.496035,15.92157 -5.406778,-3.28813 -10.394231,-10.97027 -5.543143,-16.88021 3.537698,-6.59803 13.684343,1.31579 19.506953,-3.8651"
       style="opacity:1;fill:#d4d4d4;fill-opacity:1;fill-rule:nonzero;stroke:#000000;stroke-width:2.5;stroke-linecap:butt;stroke-linejoin:miter;stroke-miterlimit:4;stroke-dasharray:none;stroke-dashoffset:4.92000008;stroke-opacity:1" />
    <path
       id="path4764"
       d="m 63.745855,126.01402 c 4.450677,5.08076 6.986802,12.28263 13.440809,15.2891 6.379128,2.40899 13.917033,-4.17014 12.183511,-10.82263 -1.079832,-4.72803 -6.054956,-7.8422 -10.790268,-7.11833 -3.583021,0.20138 -7.192058,-0.60821 -10.748771,0.24799 -0.739398,0.13581 -1.472589,0.30589 -2.195479,0.51238"
       style="opacity:1;fill:#d4d4d4;fill-opacity:1;fill-rule:nonzero;stroke:#000000;stroke-width:2.5;stroke-linecap:butt;stroke-linejoin:miter;stroke-miterlimit:4;stroke-dasharray:none;stroke-dashoffset:4.92000008;stroke-opacity:1" />
    <path
       id="path4766"
       d="m 35.325355,113.95994 c -5.946561,3.10228 -12.86127,4.99219 -19.572632,3.85268 -3.250689,-0.65094 -6.2399768,-3.20084 -6.5377801,-6.64949 -1.1398763,-5.14189 3.2851851,-10.09747 8.2988121,-10.59038 6.549528,-0.607722 12.774011,2.84259 17.271838,7.35436 1.056876,0.8117 2.245996,1.42558 3.429543,2.02785"
       style="opacity:1;fill:#d4d4d4;fill-opacity:1;fill-rule:nonzero;stroke:#000000;stroke-width:2.5;stroke-linecap:butt;stroke-linejoin:miter;stroke-miterlimit:4;stroke-dasharray:none;stroke-dashoffset:4.92000008;stroke-opacity:1" />
    <path
       id="path4768"
       d="m 41.049831,107.11775 c -5.283168,-5.71512 -19.916205,-3.95116 -18.456196,-14.592351 2.819387,-5.014409 12.925129,-12.872319 15.30797,-3.464236 2.448985,5.059007 5.208808,9.985875 7.150694,15.274457"
       style="opacity:1;fill:#d4d4d4;fill-opacity:1;fill-rule:nonzero;stroke:#000000;stroke-width:2.5;stroke-linecap:butt;stroke-linejoin:miter;stroke-miterlimit:4;stroke-dasharray:none;stroke-dashoffset:4.92000008;stroke-opacity:1" />
    <path
       id="path4770"
       d="M 47.701914,104.11149 C 48.554422,95.274132 33.591353,87.718892 41.66362,79.421315 c 6.82549,-4.441756 19.969282,1.99182 17.3007,10.683219 -2.171905,4.23354 -4.039378,8.623314 -6.035828,12.948106"
       style="opacity:1;fill:#d4d4d4;fill-opacity:1;fill-rule:nonzero;stroke:#000000;stroke-width:2.5;stroke-linecap:butt;stroke-linejoin:miter;stroke-miterlimit:4;stroke-dasharray:none;stroke-dashoffset:4.92000008;stroke-opacity:1" />
    <path
       id="path4772"
       d="m 58.343097,105.99793 c -1.573456,-4.99942 0.02733,-10.506625 3.014304,-14.649545 2.064022,-2.837375 5.239045,-5.245075 8.881951,-5.249323 2.638721,0.08162 5.255733,1.385834 6.88802,3.457536 2.082991,2.996561 2.272346,7.288657 0.113643,10.30054 -2.412262,3.671412 -6.649102,5.913922 -10.952747,6.417412 -1.692539,0.0431 -3.325475,0.48201 -4.941855,0.94539"
       style="opacity:1;fill:#d4d4d4;fill-opacity:1;fill-rule:nonzero;stroke:#000000;stroke-width:2.5;stroke-linecap:butt;stroke-linejoin:miter;stroke-miterlimit:4;stroke-dasharray:none;stroke-dashoffset:4.92000008;stroke-opacity:1" />
    <path
       id="path4774"
       d="m 64.515615,114.08387 c 6.503439,-7.3947 16.901228,-12.4412 26.812147,-9.84085 7.243179,6.80875 -4.218018,20.3459 -12.442045,14.88633 -4.560951,-1.67754 -9.564744,-2.92548 -14.392584,-1.63716"
       style="opacity:1;fill:#d4d4d4;fill-opacity:1;fill-rule:nonzero;stroke:#000000;stroke-width:2.5;stroke-linecap:butt;stroke-linejoin:miter;stroke-miterlimit:4;stroke-dasharray:none;stroke-dashoffset:4.92000008;stroke-opacity:1" />
  </g>
  <g
     style="display:inline"
     transform="translate(0,-927.3622)"
     id="layer1">
    <path
       id="path4684"
       d="M 41.91508,953.66227 C 0.33420457,977.48554 90.764291,1001.6179 64.150573,960.096 59.811672,953.06094 49.246376,947.4539 41.91508,953.66227 Z"
       style="opacity:1;fill:#d47257;fill-opacity:1;fill-rule:nonzero;stroke:#000000;stroke-width:2.5;stroke-linecap:butt;stroke-linejoin:miter;stroke-miterlimit:4;stroke-dasharray:none;stroke-dashoffset:4.92000008;stroke-opacity:1" />
  </g>
  <g
     transform="translate(0,-75)"
     style="display:inline"
     id="layer5">
    <rect
       y="-22.374348"
       x="-33.85947"
       height="236.10117"
       width="198.58121"
       id="rect5578"
       style="opacity:0.86600001;fill:#e2e2e0;fill-opacity:1;fill-rule:nonzero;stroke:none;stroke-width:3.5;stroke-linecap:butt;stroke-linejoin:miter;stroke-miterlimit:4;stroke-dasharray:none;stroke-dashoffset:4.92000008;stroke-opacity:1" />
  </g>
</svg>
