<?xml version="1.0" encoding="UTF-8" standalone="no"?>
<svg
   xmlns:dc="http://purl.org/dc/elements/1.1/"
   xmlns:cc="http://creativecommons.org/ns#"
   xmlns:rdf="http://www.w3.org/1999/02/22-rdf-syntax-ns#"
   xmlns:svg="http://www.w3.org/2000/svg"
   xmlns="http://www.w3.org/2000/svg"
   style="enable-background:new"
   version="1.1"
   id="svg2"
   viewBox="0 0 150 125"
   height="125"
   width="150">
  <defs
     id="defs4" />
  <metadata
     id="metadata7">
    <rdf:RDF>
      <cc:Work
         rdf:about="">
        <dc:format>image/svg+xml</dc:format>
        <dc:type
           rdf:resource="http://purl.org/dc/dcmitype/StillImage" />
        <dc:title></dc:title>
      </cc:Work>
    </rdf:RDF>
  </metadata>
  <g
     style="display:none"
     id="layer6">
    <rect
       y="0.46295452"
       x="0.46295196"
       height="124.0741"
       width="199.07408"
       id="rect5532"
       style="opacity:0.50533806;fill:#eeeeee;fill-opacity:1;fill-rule:nonzero;stroke:none;stroke-width:0.92590392;stroke-linecap:butt;stroke-linejoin:bevel;stroke-miterlimit:4;stroke-dasharray:none;stroke-dashoffset:0;stroke-opacity:1" />
  </g>
  <g
     id="g4224"
     transform="translate(0,-927.36216)"
     style="display:inline;opacity:1">
    <path
       style="color:#000000;display:inline;overflow:visible;visibility:visible;fill:#c7c7c7;fill-opacity:1;fill-rule:nonzero;stroke:none;stroke-width:1;stroke-linecap:butt;stroke-linejoin:bevel;stroke-miterlimit:4;stroke-dasharray:none;stroke-dashoffset:0;stroke-opacity:1;marker:none;enable-background:accumulate"
       d="m 74.999996,973.02378 50.715514,0 -10.08135,15.87041 -40.634164,63.96791 0,-76.03665 z"
       id="path4226" />
  </g>
  <g
     style="display:inline;opacity:1"
     transform="translate(0,-927.36216)"
     id="layer1">
    <path
       id="path4138"
       d="m 74.999993,976.82533 40.634197,12.06865 27.73312,32.37452 6.02698,31.5937 -74.394247,0 -74.39434439,0 6.02668239,-31.5937 27.733427,-32.37452 z"
       style="color:#000000;display:inline;overflow:visible;visibility:visible;fill:#eaeae9;fill-opacity:1;fill-rule:nonzero;stroke:#c4c4c4;stroke-width:1;stroke-linecap:butt;stroke-linejoin:miter;stroke-miterlimit:4;stroke-dasharray:none;stroke-dashoffset:0;stroke-opacity:1;marker:none;enable-background:accumulate" />
  </g>
  <g
     transform="translate(0,-75)"
     style="display:inline"
     id="layer4">
    <path
       id="path4497"
       d="m 94.62646,84.765185 c -0.819145,0.113658 -1.669167,-0.0044 -2.426351,-0.336926 -0.757184,-0.332549 -1.419225,-0.878599 -1.889767,-1.558677 -0.470542,-0.680078 -0.748154,-1.492114 -0.792429,-2.31792 -0.04428,-0.825807 0.144919,-1.66287 0.540048,-2.389361 0.664675,-1.222084 1.887976,-2.085846 3.220834,-2.484306 1.332859,-0.39846 2.767152,-0.362528 4.130598,-0.08631 1.338671,0.271198 2.623607,0.767471 3.852357,1.363921 0.67574,0.328011 1.34091,0.689758 1.92407,1.163193 0.58316,0.473434 1.08426,1.066165 1.36373,1.763384 0.41507,1.035536 0.29261,2.27024 -0.31779,3.204066 -0.6104,0.933826 -1.69219,1.541456 -2.80726,1.576805"
       style="display:inline;fill:#d6d6d6;fill-opacity:1;fill-rule:evenodd;stroke:#000000;stroke-width:0.74950254px;stroke-linecap:butt;stroke-linejoin:miter;stroke-opacity:1" />
    <path
       id="path4505"
       d="m 103.22576,86.577753 c 0.33261,-0.487941 0.64279,-0.991166 0.92925,-1.507555 0.28012,-0.504971 0.54122,-1.027903 0.92057,-1.463283 0.51527,-0.591368 1.23678,-0.993618 2.00576,-1.148157 0.76898,-0.154539 1.58123,-0.06491 2.30892,0.227833 0.72768,0.292739 1.37028,0.784759 1.86498,1.393444 0.49469,0.608684 0.84287,1.331765 1.03808,2.091444 0.39042,1.519357 0.16414,3.153484 -0.4258,4.607045 -0.58994,1.453562 -1.52595,2.743204 -2.56372,3.919594 -0.42835,0.485565 -0.87885,0.957521 -1.40336,1.337193 -0.52451,0.379673 -1.1297,0.665439 -1.77276,0.741186 -0.9442,0.111219 -1.93271,-0.263531 -2.56589,-0.972738 -0.63317,-0.709207 -0.8939,-1.733716 -0.67677,-2.659317"
       style="display:inline;fill:#d6d6d6;fill-opacity:1;fill-rule:evenodd;stroke:#000000;stroke-width:0.74950254px;stroke-linecap:butt;stroke-linejoin:miter;stroke-opacity:1" />
    <path
       id="path4509"
       d="m 102.02689,94.451883 c 0.73505,0.365647 1.32094,1.021177 1.60209,1.792505 0.26378,0.723671 0.25965,1.534895 0.0279,2.269435 -0.2318,0.734541 -0.68472,1.391891 -1.26128,1.902637 -1.15313,1.02148 -2.749669,1.43097 -4.290079,1.41502 -0.790416,-0.008 -1.576889,-0.11873 -2.367219,-0.13301 -0.617272,-0.0112 -1.24712,0.0351 -1.84117,-0.13303 -0.576515,-0.16312 -1.089789,-0.52711 -1.456412,-1.001 -0.366623,-0.47388 -0.588469,-1.053779 -0.659388,-1.648716 -0.141839,-1.189873 0.318924,-2.397744 1.063722,-3.336462 0.366258,-0.461619 0.80058,-0.869144 1.284559,-1.205302"
       style="display:inline;fill:#d6d6d6;fill-opacity:1;fill-rule:evenodd;stroke:#000000;stroke-width:0.74950254px;stroke-linecap:butt;stroke-linejoin:miter;stroke-opacity:1" />
    <path
       id="path4513"
       d="m 93.116009,93.229055 c 0.08246,1.01669 -0.252376,2.061018 -0.910642,2.840213 -0.658267,0.779194 -1.631976,1.283801 -2.648153,1.372357 -1.091505,0.09512 -2.195383,-0.281596 -3.079502,-0.928717 -0.884119,-0.64712 -1.559665,-1.549891 -2.049457,-2.52996 -1.11703,-2.235164 -1.286817,-4.86777 -0.789075,-7.316436 0.13182,-0.648495 0.312569,-1.297643 0.657556,-1.862361 0.531491,-0.870013 1.445143,-1.487977 2.443193,-1.696065 0.99805,-0.208089 2.067325,-0.01343 2.948801,0.498829 0.649506,0.377449 1.2004,0.922945 1.584228,1.568702 0.383828,0.645756 0.599746,1.390357 0.620924,2.141274"
       style="display:inline;fill:#d6d6d6;fill-opacity:1;fill-rule:evenodd;stroke:#000000;stroke-width:0.74950254px;stroke-linecap:butt;stroke-linejoin:miter;stroke-opacity:1" />
    <path
       id="path4533"
       d="m 93.108018,94.515055 c -0.823299,2.262857 -2.029095,4.386014 -3.550804,6.252225 -1.298054,1.59192 -2.822059,2.99658 -4.031116,4.65711 -0.604528,0.83026 -1.129187,1.7257 -1.478031,2.69167 -0.348844,0.96597 -0.518088,2.00604 -0.408897,3.02725 0.157175,1.46997 0.909233,2.86714 2.047716,3.81021 1.138483,0.94307 2.649938,1.42185 4.124002,1.30934 0.654282,-0.0499 1.296774,-0.21073 1.951664,-0.25193 0.327445,-0.0206 0.658602,-0.0109 0.979569,0.0571 0.320968,0.068 0.632163,0.19593 0.891956,0.39631 0.354184,0.27318 0.59826,0.66946 0.754555,1.08857 0.156296,0.4191 0.230995,0.86358 0.297543,1.3059 0.10637,0.707 0.194085,1.4168 0.263024,2.12842"
       style="display:inline;fill:none;fill-rule:evenodd;stroke:#000000;stroke-width:0.74950254px;stroke-linecap:butt;stroke-linejoin:miter;stroke-opacity:1" />
    <path
       id="path4561"
       d="m 95.322599,120.9134 c 0.417396,-1.77307 1.396936,-3.40938 2.762554,-4.61482 0.695819,-0.6142 1.509392,-1.12665 2.417807,-1.31689 0.75411,-0.15793 1.53505,-0.0877 2.30419,-0.13302 1.16731,-0.0687 2.30934,-0.40589 3.36836,-0.90168 1.82334,-0.85361 3.40268,-2.16939 4.74663,-3.6684 1.34395,-1.499 2.46482,-3.18284 3.52975,-4.89139 0.82314,-1.32062 1.62131,-2.67124 2.13883,-4.13882 0.16716,-0.47402 0.30435,-0.9586 0.41049,-1.449895 -0.56275,0.418675 -1.16882,0.779095 -1.80538,1.073655 -0.94619,0.43783 -1.95502,0.72838 -2.97577,0.94063 -2.08652,0.43386 -4.2271,0.54518 -6.32642,0.91215 -2.09932,0.36697 -4.21358,1.02161 -5.85565,2.38008 -1.606145,1.32875 -2.633261,3.22165 -3.487459,5.12313 -0.527853,1.17502 -1.007646,2.38078 -1.265324,3.64289 -0.140054,0.68598 -0.213584,1.38544 -0.221197,2.08553 -0.01027,0.94433 0.099,1.8871 0.08447,2.83137 -0.01131,0.73501 -0.09789,1.46883 -0.257941,2.18629"
       style="display:inline;fill:#d6d6d6;fill-opacity:1;fill-rule:evenodd;stroke:#000000;stroke-width:0.74950254px;stroke-linecap:butt;stroke-linejoin:miter;stroke-opacity:1" />
  </g>
  <g
     style="display:inline"
     transform="translate(0,-75)"
     id="layer5">
    <path
       id="path4493"
       d="m 98.763037,83.872965 c -1.166951,-0.04789 -2.312544,0.29211 -3.419307,0.665129 -0.541956,0.182659 -1.084779,0.375861 -1.578136,0.665134 -1.046772,0.61376 -1.82418,1.655501 -2.159422,2.821712 -0.335242,1.16621 -0.234974,2.444563 0.234911,3.563331 0.469884,1.118768 1.299935,2.075533 2.315832,2.73915 1.015896,0.663618 2.211813,1.037394 3.422517,1.118811 1.093612,0.07354 2.210218,-0.09087 3.211128,-0.537615 1.00091,-0.446742 1.88109,-1.182337 2.44388,-2.122903 0.31816,-0.531725 0.53308,-1.122329 0.65755,-1.729341 0.32996,-1.609152 0.004,-3.342941 -0.88773,-4.722431 -0.90357,-1.440362 -2.54234,-2.39126 -4.241223,-2.460977 z"
       style="display:inline;fill:#dc9783;fill-opacity:1;fill-rule:evenodd;stroke:#000000;stroke-width:0.74950254px;stroke-linecap:butt;stroke-linejoin:miter;stroke-opacity:1" />
  </g>
</svg>
