<?xml version="1.0" encoding="UTF-8" standalone="no"?>
<svg
   xmlns:dc="http://purl.org/dc/elements/1.1/"
   xmlns:cc="http://creativecommons.org/ns#"
   xmlns:rdf="http://www.w3.org/1999/02/22-rdf-syntax-ns#"
   xmlns:svg="http://www.w3.org/2000/svg"
   xmlns="http://www.w3.org/2000/svg"
   enable-background="new"
   style="enable-background:new"
   version="1.1"
   id="svg2"
   viewBox="0 0 200 125"
   height="125"
   width="200">
  <defs
     id="defs4" />
  <metadata
     id="metadata7">
    <rdf:RDF>
      <cc:Work
         rdf:about="">
        <dc:format>image/svg+xml</dc:format>
        <dc:type
           rdf:resource="http://purl.org/dc/dcmitype/StillImage" />
        <dc:title></dc:title>
      </cc:Work>
    </rdf:RDF>
  </metadata>
  <g
     style="display:none"
     id="layer6">
    <rect
       y="0.46295452"
       x="0.46295196"
       height="124.0741"
       width="199.07408"
       id="rect5532"
       style="opacity:0.50533806;fill:#eeeeee;fill-opacity:1;fill-rule:nonzero;stroke:none;stroke-width:0.92590392;stroke-linecap:butt;stroke-linejoin:bevel;stroke-miterlimit:4;stroke-dasharray:none;stroke-dashoffset:0;stroke-opacity:1" />
  </g>
  <g
     id="g4224"
     transform="translate(0,-927.36216)"
     style="display:inline;opacity:1">
    <path
       style="color:#000000;display:inline;overflow:visible;visibility:visible;fill:#525252;fill-opacity:1;fill-rule:nonzero;stroke:none;stroke-width:1;stroke-linecap:butt;stroke-linejoin:bevel;stroke-miterlimit:4;stroke-dasharray:none;stroke-dashoffset:0;stroke-opacity:1;marker:none;enable-background:accumulate"
       d="m 100.18716,972.84285 51.09452,0 -10.15669,15.807 -40.93783,63.71225 0,-75.73277 z"
       id="path4226" />
  </g>
  <g
     style="display:inline;opacity:1"
     transform="translate(0,-927.36216)"
     id="layer1">
    <path
       id="path4138"
       d="m 100.18716,976.62921 40.93787,12.02043 27.94037,32.24506 6.07202,31.4675 -74.95021,0 -74.950306,0 6.071721,-31.4675 27.940683,-32.24506 z"
       style="color:#000000;display:inline;overflow:visible;visibility:visible;fill:#333333;fill-opacity:1;fill-rule:nonzero;stroke:none;stroke-width:2;stroke-linecap:butt;stroke-linejoin:miter;stroke-miterlimit:4;stroke-dasharray:none;stroke-dashoffset:0;stroke-opacity:1;marker:none;enable-background:accumulate" />
  </g>
  <g
     transform="translate(0,-75)"
     style="display:inline"
     id="layer4">
    <path
       id="path4497"
       d="m 119.9603,84.727672 c -0.81958,0.12331 -1.67294,0.01345 -2.43456,-0.313435 -0.76162,-0.326879 -1.42913,-0.869757 -1.90435,-1.548783 -0.47523,-0.679027 -0.75669,-1.49209 -0.80298,-2.319599 -0.0463,-0.82751 0.14273,-1.666892 0.53925,-2.394686 0.6697,-1.229194 1.90588,-2.092992 3.24901,-2.487217 1.34313,-0.394225 2.78546,-0.35116 4.15736,-0.07313 1.34678,0.27294 2.64124,0.766067 3.88115,1.358473 0.67957,0.324685 1.34912,0.682604 1.93681,1.15361 0.5877,0.471006 1.09354,1.062923 1.37556,1.761274 0.41865,1.036679 0.29407,2.275859 -0.32255,3.208461 -0.61662,0.932602 -1.70803,1.532525 -2.82586,1.553309"
       style="display:inline;fill:#999999;fill-opacity:1;fill-rule:evenodd;stroke:#000000;stroke-width:0.7495026px;stroke-linecap:butt;stroke-linejoin:miter;stroke-opacity:1" />
    <path
       id="path4505"
       d="m 128.62386,86.532999 c 0.3347,-0.485916 0.6472,-0.987122 0.9362,-1.501532 0.28263,-0.503077 0.54644,-1.024084 0.92746,-1.457437 0.51629,-0.587206 1.23591,-0.986429 2.00251,-1.140308 0.76661,-0.153878 1.57611,-0.06584 2.30234,0.223909 0.72623,0.289751 1.36867,0.777497 1.86469,1.381919 0.49602,0.604422 0.84698,1.323291 1.04573,2.079506 0.3975,1.512431 0.181,3.143091 -0.40209,4.594111 -0.5831,1.45102 -1.515,2.738462 -2.55337,3.907752 -0.43172,0.486145 -0.8867,0.957612 -1.41558,1.335773 -0.52887,0.37816 -1.13821,0.661315 -1.78427,0.734302 -0.94242,0.106467 -1.92661,-0.266117 -2.56226,-0.969992 -0.63564,-0.703875 -0.9063,-1.720827 -0.70463,-2.647551"
       style="display:inline;fill:#999999;fill-opacity:1;fill-rule:evenodd;stroke:#000000;stroke-width:0.7495026px;stroke-linecap:butt;stroke-linejoin:miter;stroke-opacity:1" />
    <path
       id="path4509"
       d="m 127.41604,94.375667 c 0.73992,0.358839 1.33141,1.0131 1.61405,1.785344 0.26534,0.724981 0.25884,1.538885 0.0226,2.273865 -0.23624,0.734979 -0.69536,1.390606 -1.27731,1.897894 -1.1639,1.01457 -2.76614,1.41107 -4.31006,1.39301 -0.79628,-0.009 -1.58869,-0.11929 -2.38491,-0.13248 -0.62189,-0.0103 -1.25651,0.0371 -1.85493,-0.1325 -0.57451,-0.16278 -1.08643,-0.52452 -1.45306,-0.99584 -0.36663,-0.471314 -0.58975,-1.048418 -0.66239,-1.641109 -0.14529,-1.185382 0.31105,-2.391492 1.05551,-3.325309 0.36817,-0.461819 0.80603,-0.867983 1.29416,-1.200486"
       style="display:inline;fill:#999999;fill-opacity:1;fill-rule:evenodd;stroke:#000000;stroke-width:0.7495026px;stroke-linecap:butt;stroke-linejoin:miter;stroke-opacity:1" />
    <path
       id="path4513"
       d="m 118.43856,93.157725 c 0.0676,1.016152 -0.27667,2.053781 -0.93827,2.828004 -0.6616,0.774224 -1.63286,1.276062 -2.64712,1.367735 -1.09531,0.099 -2.20491,-0.272719 -3.09625,-0.916936 -0.89134,-0.644216 -1.57519,-1.546277 -2.07104,-2.527922 -1.12273,-2.222675 -1.29905,-4.848616 -0.79497,-7.287203 0.13359,-0.64628 0.31697,-1.292644 0.66247,-1.854921 0.53734,-0.874487 1.45902,-1.493872 2.46435,-1.70069 1.00533,-0.206818 2.0811,-0.0085 2.96794,0.508238 0.64776,0.377399 1.19819,0.920297 1.58448,1.562796 0.38629,0.642499 0.60763,1.383256 0.63715,2.132357"
       style="display:inline;fill:#999999;fill-opacity:1;fill-rule:evenodd;stroke:#000000;stroke-width:0.7495026px;stroke-linecap:butt;stroke-linejoin:miter;stroke-opacity:1" />
    <path
       id="path4533"
       d="m 118.43051,94.438588 c -0.82975,2.257698 -2.04501,4.373156 -3.57734,6.227242 -1.30788,1.58251 -2.84272,2.97433 -4.06119,4.62667 -0.60923,0.82616 -1.13821,1.7187 -1.48986,2.6831 -0.35165,0.9644 -0.52206,2.0043 -0.41122,3.02481 0.16009,1.47397 0.92465,2.87134 2.07324,3.80886 1.14858,0.93753 2.66653,1.40643 4.1446,1.29023 0.6591,-0.0518 1.30628,-0.21433 1.96609,-0.25602 0.32991,-0.0208 0.66357,-0.0111 0.98696,0.0575 0.32339,0.0685 0.63692,0.19741 0.89871,0.39925 0.35338,0.27245 0.59826,0.6665 0.75633,1.08377 0.15808,0.41728 0.23533,0.86019 0.30363,1.30114 0.10902,0.70384 0.1974,1.41089 0.26499,2.11991"
       style="display:inline;fill:none;fill-rule:evenodd;stroke:#000000;stroke-width:0.7495026px;stroke-linecap:butt;stroke-linejoin:miter;stroke-opacity:1" />
    <path
       id="path4561"
       d="m 120.66164,120.73146 c 0.42508,-1.76955 1.41213,-3.39965 2.7832,-4.59638 0.70252,-0.61319 1.52279,-1.1224 2.43588,-1.31163 0.76003,-0.15751 1.54653,-0.0875 2.32141,-0.13249 1.17508,-0.0682 2.32554,-0.40326 3.39354,-0.89808 1.8294,-0.84759 3.41821,-2.15593 4.77336,-3.64881 1.35515,-1.49288 2.48873,-3.17177 3.56487,-4.87678 0.82931,-1.31395 1.63307,-2.65872 2.15481,-4.12227 0.16825,-0.47197 0.30648,-0.95464 0.41357,-1.444122 -0.56776,0.417172 -1.17828,0.776112 -1.81888,1.069372 -0.95405,0.43676 -1.97013,0.72613 -2.99801,0.93688 -2.10159,0.4309 -4.2566,0.53771 -6.37085,0.90146 -2.11425,0.36374 -4.24416,1.01635 -5.90226,2.37762 -1.61047,1.32217 -2.65025,3.20621 -3.51353,5.10265 -0.53224,1.16922 -1.01517,2.37018 -1.27478,3.62834 -0.14094,0.68306 -0.21514,1.37979 -0.22285,2.0772 -0.0104,0.94057 0.0997,1.87954 0.0851,2.82005 -0.0114,0.73222 -0.0986,1.46323 -0.25987,2.17756"
       style="display:inline;fill:#999999;fill-opacity:1;fill-rule:evenodd;stroke:#000000;stroke-width:0.7495026px;stroke-linecap:butt;stroke-linejoin:miter;stroke-opacity:1" />
  </g>
  <g
     style="display:inline"
     transform="translate(0,-75)"
     id="layer5">
    <path
       id="path4493"
       d="m 124.12779,83.839017 c -1.17503,-0.04802 -2.32878,0.291849 -3.44486,0.662471 -0.54591,0.181283 -1.09309,0.372591 -1.58993,0.662477 -1.04537,0.609932 -1.81974,1.651418 -2.14964,2.815884 -0.32991,1.164465 -0.22254,2.43931 0.25257,3.552455 0.4751,1.113145 1.30818,2.06244 2.32385,2.720631 1.01568,0.658192 2.2082,1.028863 3.41556,1.11311 1.09919,0.0767 2.22214,-0.08342 3.23053,-0.527551 1.0084,-0.444126 1.89723,-1.17906 2.46674,-2.122338 0.31946,-0.529128 0.53662,-1.117291 0.66246,-1.722432 0.33345,-1.60346 0.004,-3.334385 -0.89435,-4.703563 -0.92106,-1.436947 -2.56755,-2.381448 -4.27293,-2.451144 z"
       style="display:inline;fill:#dc9783;fill-opacity:1;fill-rule:evenodd;stroke:#000000;stroke-width:0.7495026px;stroke-linecap:butt;stroke-linejoin:miter;stroke-opacity:1" />
  </g>
</svg>
