<?xml version="1.0" encoding="UTF-8" standalone="no"?>
<svg
   xmlns:dc="http://purl.org/dc/elements/1.1/"
   xmlns:cc="http://creativecommons.org/ns#"
   xmlns:rdf="http://www.w3.org/1999/02/22-rdf-syntax-ns#"
   xmlns:svg="http://www.w3.org/2000/svg"
   xmlns="http://www.w3.org/2000/svg"
   style="enable-background:new"
   version="1.1"
   id="svg2"
   viewBox="0 0 290.00001 349.99998"
   height="350"
   width="290">
  <defs
     id="defs4">
    <filter
       id="filter8863"
       style="color-interpolation-filters:sRGB">
      <feBlend
         in2="SourceGraphic"
         id="feBlend8865"
         mode="normal" />
    </filter>
  </defs>
  <metadata
     id="metadata7">
    <rdf:RDF>
      <cc:Work
         rdf:about="">
        <dc:format>image/svg+xml</dc:format>
        <dc:type
           rdf:resource="http://purl.org/dc/dcmitype/StillImage" />
        <dc:title></dc:title>
      </cc:Work>
    </rdf:RDF>
  </metadata>
  <g
     style="display:inline"
     id="layer2">
    <path
       id="path7829"
       d="M 115.94881,379.49998 C 122.9331,354.1153 100.33558,326.68195 76.155169,324.51415 46.879135,318.90095 -0.27009384,313.83244 1.8160652,273.81673 1.5102362,239.07162 36.08615,212.27483 69.628033,216.79451 c 27.097543,1.73722 44.415517,22.13449 62.523987,43.36209 22.50635,24.59248 62.44238,16.24544 82.07202,-7.6073 30.54924,-32.07839 28.15918,-82.97466 9.91745,-120.47005 -5.3605,-11.20758 -15.63733,-17.52137 -24.72821,-25.20059"
       style="opacity:1;fill:none;fill-opacity:1;fill-rule:nonzero;stroke:#000000;stroke-width:3.5;stroke-linecap:butt;stroke-linejoin:miter;stroke-miterlimit:4;stroke-dasharray:none;stroke-dashoffset:4.92000008;stroke-opacity:1" />
    <path
       id="path7900"
       d="m 46.88131,318.72433 c 32.498465,6.9236 89.34233,16.38103 95.45946,-29.62222 C 147.67,243.3215 115.96255,199.98661 81.986649,173.01744"
       style="opacity:1;fill:none;fill-opacity:1;fill-rule:nonzero;stroke:#000000;stroke-width:3;stroke-linecap:butt;stroke-linejoin:miter;stroke-miterlimit:4;stroke-dasharray:none;stroke-dashoffset:4.92000008;stroke-opacity:1" />
  </g>
  <g
     style="display:inline;opacity:1"
     id="layer3">
    <path
       id="path4222"
       d="m 176.11441,71.00781 c -0.0227,-13.41688 -9.17878,-24.519705 -20.03249,-29.109163 -9.59669,-4.313639 -21.9732,-3.59149 -30.20114,4.744492 -5.34556,5.002121 -7.94217,12.917361 -6.96269,20.282611 0.87691,9.94055 7.35982,20.22465 17.079,20.74955 1.86656,0.0907 3.76311,-0.17729 5.57441,-0.79795"
       style="fill:#b4b4b4;fill-opacity:1;fill-rule:evenodd;stroke:#000000;stroke-width:2.5;stroke-linecap:butt;stroke-linejoin:miter;stroke-miterlimit:4;stroke-dasharray:none;stroke-opacity:1" />
    <path
       id="path4224"
       d="m 141.70535,88.77735 c -7.61447,-2.0252 -16.81008,-0.15135 -22.38058,6.7167 -5.056,6.30827 -5.18139,15.64499 -2.24407,22.69903 2.97648,7.36653 8.97534,12.4876 15.03774,16.6517 5.23231,3.17147 12.37928,3.46223 17.50886,-0.823 5.78497,-4.09623 10.43466,-10.0335 13.59133,-16.69407"
       style="fill:#b4b4b4;fill-opacity:1;fill-rule:evenodd;stroke:#000000;stroke-width:2.5;stroke-linecap:butt;stroke-linejoin:miter;stroke-miterlimit:4;stroke-dasharray:none;stroke-opacity:1" />
    <path
       id="path4226"
       d="m 164.51516,117.98172 c -5.55979,12.22086 2.64198,26.17335 13.22971,30.0276 10.03876,4.71944 23.55811,3.16475 30.91854,-7.192 6.15891,-7.95923 5.53036,-20.37602 -1.27879,-26.9796 -2.78387,-3.04313 -6.43517,-5.18665 -10.41087,-5.7914"
       style="fill:#b4b4b4;fill-opacity:1;fill-rule:evenodd;stroke:#000000;stroke-width:2.5;stroke-linecap:butt;stroke-linejoin:miter;stroke-miterlimit:4;stroke-dasharray:none;stroke-opacity:1" />
    <path
       id="path4228"
       d="m 193.64668,100.53447 c 3.6368,7.48177 11.90922,10.29743 19.30903,8.74106 9.15985,-1.78102 17.09419,-11.26505 17.91477,-21.80717 0.88676,-8.35561 -2.28689,-15.90665 -4.2626,-23.52927 -0.66745,-2.87393 -1.07427,-5.88741 -0.80999,-8.92936 -6.16119,0.243 -10.1122,-5.52765 -14.47865,-9.287757 -4.33157,-3.302993 -10.07452,-3.593447 -15.27883,-2.522372 -6.08271,1.95262 -11.53461,6.669629 -15.34651,12.468329 -2.32522,3.54893 -2.01855,7.87091 -1.89252,11.86545 -0.0111,1.88694 -0.13523,3.80133 -0.6098,5.65303"
       style="fill:#b4b4b4;fill-opacity:1;fill-rule:evenodd;stroke:#000000;stroke-width:2.5;stroke-linecap:butt;stroke-linejoin:miter;stroke-miterlimit:4;stroke-dasharray:none;stroke-opacity:1" />
    <path
       id="path8082"
       d="m 81.698806,174.74998 c 11.18492,8.41055 -5.173869,23.54731 -14.22541,15.90394 -1.74195,-2.49998 -2.426956,-6.18566 -0.77459,-8.90394"
       style="display:inline;opacity:1;fill:#b4b4b4;fill-opacity:1;fill-rule:nonzero;stroke:#000000;stroke-width:2;stroke-linecap:butt;stroke-linejoin:miter;stroke-miterlimit:4;stroke-dasharray:none;stroke-dashoffset:4.92000008;stroke-opacity:1" />
    <path
       id="path8084"
       d="m 64.698806,182.24998 c -1.3088,7.21321 -10.71804,11.5091 -16.104268,5.63321 -5.642206,-4.4492 -1.63884,-13.95825 5.841705,-13.84032"
       style="display:inline;opacity:1;fill:#b4b4b4;fill-opacity:1;fill-rule:nonzero;stroke:#000000;stroke-width:2;stroke-linecap:butt;stroke-linejoin:miter;stroke-miterlimit:4;stroke-dasharray:none;stroke-dashoffset:4.92000008;stroke-opacity:1" />
    <path
       id="path8088"
       d="m 67.491699,150.35353 c 0.09197,-6.98251 -1.157832,-14.88792 4.129787,-20.4836 5.341622,-6.8503 16.13665,-0.34646 16.14052,7.22644 0.16472,7.00391 -6.948241,10.68989 -11.270307,15.00716"
       style="display:inline;opacity:1;fill:#b4b4b4;fill-opacity:1;fill-rule:nonzero;stroke:#000000;stroke-width:2;stroke-linecap:butt;stroke-linejoin:miter;stroke-miterlimit:4;stroke-dasharray:none;stroke-dashoffset:4.92000008;stroke-opacity:1" />
    <path
       id="path8090"
       d="m 80.698806,154.74998 c -0.550425,-4.90087 3.68968,-8.17585 7.21314,-10.61167 4.72953,1.82783 9.23102,7.61935 9.8602,12.95941 0.30457,5.88702 -7.54788,9.26207 -12.53045,7.99065"
       style="display:inline;opacity:1;fill:#b4b4b4;fill-opacity:1;fill-rule:nonzero;stroke:#000000;stroke-width:2;stroke-linecap:butt;stroke-linejoin:miter;stroke-miterlimit:4;stroke-dasharray:none;stroke-dashoffset:4.92000008;stroke-opacity:1" />
    <path
       id="path8092"
       d="m 85.698806,166.24998 c 3.82899,0.2877 8.71894,1.36723 10.42587,5.02548 -1.27466,4.86597 -6.73563,5.66089 -10.5835,3.05789 -0.64568,-0.399 -2.12684,-1.23278 -2.71737,-1.70837"
       style="display:inline;opacity:1;fill:#b4b4b4;fill-opacity:1;fill-rule:nonzero;stroke:#000000;stroke-width:2;stroke-linecap:butt;stroke-linejoin:miter;stroke-miterlimit:4;stroke-dasharray:none;stroke-dashoffset:4.92000008;stroke-opacity:1" />
    <path
       id="path8144"
       d="m 47.593621,164.63571 c -0.198571,2.92855 2.215089,8.05068 -1.910632,9.1021 -5.06266,0.62613 -10.095152,-3.29348 -10.722227,-8.3603 -1.833732,-5.91873 4.516306,-11.66388 10.274952,-10.36682 4.862053,0.19704 3.611762,5.17913 2.467285,8.19608 -0.09319,0.47191 -0.05659,0.95312 -0.109378,1.42894 z"
       style="display:inline;opacity:1;fill:#b4b4b4;fill-opacity:1;fill-rule:nonzero;stroke:#000000;stroke-width:2;stroke-linecap:butt;stroke-linejoin:miter;stroke-miterlimit:4;stroke-dasharray:none;stroke-dashoffset:4.92000008;stroke-opacity:1" />
    <path
       id="path8146"
       d="m 52.808948,141.79994 c -1.502853,2.70605 -2.505068,6.08744 -5.400105,7.65175 -2.667897,0.95161 -5.242041,-1.02227 -7.150827,-2.67153 -2.604105,-2.51428 -2.212564,-6.73098 -0.179058,-9.45657 0.993467,-1.68824 2.857384,-2.50414 4.018014,-4.0074 2.718218,-2.78459 7.275004,-2.91297 10.492209,-0.93045 1.67162,0.90088 4.243179,2.76176 2.522636,4.80672 -1.186016,1.748 -2.643877,3.29994 -4.302869,4.60748 z"
       style="display:inline;opacity:1;fill:#b4b4b4;fill-opacity:1;fill-rule:nonzero;stroke:#000000;stroke-width:2;stroke-linecap:butt;stroke-linejoin:miter;stroke-miterlimit:4;stroke-dasharray:none;stroke-dashoffset:4.92000008;stroke-opacity:1" />
  </g>
  <g
     style="display:inline"
     id="layer5">
    <path
       id="path4220"
       d="m 174.12838,67.15282 c -16.91301,-0.90116 -40.75642,15.18523 -29.03522,35.10942 9.65056,20.03349 42.66186,26.40362 54.41129,4.27539 9.89728,-34.17021 -13.70374,-38.90596 -25.37607,-39.38481 z"
       style="display:inline;fill:#ff8360;fill-opacity:1;fill-rule:evenodd;stroke:#000000;stroke-width:2.5;stroke-linecap:butt;stroke-linejoin:miter;stroke-miterlimit:4;stroke-dasharray:none;stroke-opacity:1" />
    <path
       id="path8060"
       d="m 81.529542,174.12099 c -12.410058,22.49771 -45.958701,-8.14684 -20.140725,-20.68956 13.645318,-8.89017 30.944599,6.6509 20.140725,20.68956 z"
       style="display:inline;opacity:1;fill:#ff8360;fill-opacity:1;fill-rule:nonzero;stroke:#000000;stroke-width:2;stroke-linecap:butt;stroke-linejoin:miter;stroke-miterlimit:4;stroke-dasharray:none;stroke-dashoffset:4.92000008;stroke-opacity:1" />
  </g>
  <g
     style="display:inline"
     id="layer12">
    <path
       id="path12122"
       d="m 15.5,340.18335 8.99971,9.81663 244.20058,0 12.72225,-31.97903 z"
       style="display:inline;opacity:1;fill:#898989;fill-opacity:1;fill-rule:nonzero;stroke:none;stroke-width:3;stroke-linecap:butt;stroke-linejoin:miter;stroke-miterlimit:4;stroke-dasharray:none;stroke-dashoffset:4.92000008;stroke-opacity:1;enable-background:new" />
  </g>
  <g
     style="display:inline;opacity:0.86600001"
     id="layer7">
    <rect
       y="-2.5062966"
       x="-2.9072683"
       height="357.59402"
       width="312.74185"
       id="rect6025"
       style="opacity:1;fill:#e8e8e6;fill-opacity:1;fill-rule:nonzero;stroke:none;stroke-width:3;stroke-linecap:butt;stroke-linejoin:miter;stroke-miterlimit:4;stroke-dasharray:none;stroke-dashoffset:4.92000008;stroke-opacity:1" />
  </g>
</svg>
