<?xml version="1.0" encoding="UTF-8" standalone="no"?>
<svg
   xmlns:dc="http://purl.org/dc/elements/1.1/"
   xmlns:cc="http://creativecommons.org/ns#"
   xmlns:rdf="http://www.w3.org/1999/02/22-rdf-syntax-ns#"
   xmlns:svg="http://www.w3.org/2000/svg"
   xmlns="http://www.w3.org/2000/svg"
   version="1.1"
   id="svg2"
   viewBox="0 0 249.99998 550"
   height="550"
   width="250">
  <defs
     id="defs4" />
  <metadata
     id="metadata7">
    <rdf:RDF>
      <cc:Work
         rdf:about="">
        <dc:format>image/svg+xml</dc:format>
        <dc:type
           rdf:resource="http://purl.org/dc/dcmitype/StillImage" />
        <dc:title></dc:title>
      </cc:Work>
    </rdf:RDF>
  </metadata>
  <g
     style="display:inline"
     transform="translate(0,-502.36214)"
     id="layer1">
    <path
       id="path5460"
       d="m 88.109246,975.52087 c 17.207954,-8.3535 40.739354,-16.46352 55.622414,1.32939"
       style="opacity:0.86600001;fill:none;fill-opacity:1;fill-rule:nonzero;stroke:#000000;stroke-width:3.5;stroke-linecap:butt;stroke-linejoin:miter;stroke-miterlimit:4;stroke-dasharray:none;stroke-dashoffset:4.92000008;stroke-opacity:1" />
    <path
       id="path4264"
       d="M 14.90767,900.0767 C 22.178098,853.80288 64.014887,823.0033 94.287882,791.83229 M 15.099485,899.07941 c -9.7531875,37.08584 19.10727,84.90207 60.285062,81.1261 33.858353,-4.91827 42.578733,-59.30267 6.551763,-68.22417 -42.339068,-12.84492 -81.61896495,33.90412 -72.0025263,74.36482 4.1106613,26.88424 24.9493843,46.60174 50.3126483,54.31044"
       style="opacity:1;fill:none;fill-opacity:1;fill-rule:nonzero;stroke:#000000;stroke-width:3.5;stroke-linecap:butt;stroke-linejoin:miter;stroke-miterlimit:4;stroke-dasharray:none;stroke-dashoffset:4.92000008;stroke-opacity:1" />
    <path
       id="path5692-2"
       d="m 91.661407,716.82555 c -10.668539,3.02989 -8.452951,17.40941 -0.768938,22.0574 6.368578,3.99785 15.991141,2.24607 22.230791,-1.79326 6.35526,-4.20733 6.5656,-19.16548 -1.39371,-19.74843 l -1.06245,0.26631"
       style="display:inline;opacity:1;fill:#d4d4d4;fill-opacity:1;fill-rule:nonzero;stroke:#000000;stroke-width:2.5;stroke-linecap:butt;stroke-linejoin:miter;stroke-miterlimit:4;stroke-dasharray:none;stroke-dashoffset:4.92000008;stroke-opacity:1" />
    <path
       id="path5694-4"
       d="m 114.00656,719.22943 c 4.07469,5.13693 12.53412,5.61219 17.12152,2.39601 5.92851,-3.2472 9.85602,-10.23905 6.89444,-17.0299 -1.22143,-4.76762 -5.88363,-9.36081 -11.37771,-9.15165 -6.27084,-0.1066 -11.14006,4.24117 -12.76407,9.41743 -0.32838,0.49906 -0.695,0.97382 -1.00639,1.48351"
       style="display:inline;opacity:1;fill:#d4d4d4;fill-opacity:1;fill-rule:nonzero;stroke:#000000;stroke-width:2.5;stroke-linecap:butt;stroke-linejoin:miter;stroke-miterlimit:4;stroke-dasharray:none;stroke-dashoffset:4.92000008;stroke-opacity:1" />
    <path
       id="path5696-4"
       d="m 114.37614,698.28892 c 7.25603,-1.3819 15.64843,-7.72469 16.60234,-15.0268 -0.57268,-8.34891 -8.9881,-13.38997 -16.51983,-14.60971 -7.01784,-1.80188 -14.28339,-2.06421 -21.474869,-1.77649 -5.322968,-1.28158 -8.948675,3.26397 -6.550213,8.17599 1.575677,4.40226 -4.111354,12.78551 2.240217,14.21081"
       style="display:inline;opacity:1;fill:#d4d4d4;fill-opacity:1;fill-rule:nonzero;stroke:#000000;stroke-width:2.5;stroke-linecap:butt;stroke-linejoin:miter;stroke-miterlimit:4;stroke-dasharray:none;stroke-dashoffset:4.92000008;stroke-opacity:1" />
    <path
       id="path5698-0"
       d="m 88.960296,698.45295 c -3.42608,-5.74433 -5.684383,-15.84755 -13.738591,-15.89397 -6.082036,1.72878 -11.021493,7.59645 -12.347272,13.68659 -0.04638,6.82285 -0.311486,15.02328 5.172756,20.02766 4.022487,3.2386 10.389003,9.63341 15.49704,4.85492 1.637884,-2.90767 1.125742,-6.7756 3.316896,-9.55286"
       style="display:inline;opacity:1;fill:#d4d4d4;fill-opacity:1;fill-rule:nonzero;stroke:#000000;stroke-width:2.5;stroke-linecap:butt;stroke-linejoin:miter;stroke-miterlimit:4;stroke-dasharray:none;stroke-dashoffset:4.92000008;stroke-opacity:1" />
    <path
       id="path4147-7"
       d="m 84.768806,713.39701 c 9.335738,13.9621 38.102094,10.16842 33.023504,-9.93587 -0.42025,-18.79986 -30.112181,-25.23334 -35.107829,-5.76238 -1.743309,5.17622 -1.116008,11.20561 2.084325,15.69825 z"
       style="display:inline;opacity:1;fill:#ff8360;fill-opacity:1;fill-rule:nonzero;stroke:#000000;stroke-width:2.36236668;stroke-linecap:butt;stroke-linejoin:miter;stroke-miterlimit:4;stroke-dasharray:none;stroke-dashoffset:4.92000008;stroke-opacity:1" />
    <path
       id="path4668"
       d="m 90.717442,795.41126 c 36.819748,-36.16752 78.390938,-72.11478 95.069018,-122.68374 10.78475,-30.77321 7.86319,-67.73001 -13.81883,-93.17376 -15.68942,-19.32654 -45.45292,-27.97949 -67.52242,-14.30338 -16.580835,8.65044 -32.823054,21.97466 -54.111726,17.13771 C 21.399588,573.22553 9.2118276,552.08277 7.1252887,513.82347 6.0069377,495.41631 9.8009584,493.035 8.8975527,482.61147"
       style="fill:none;fill-rule:evenodd;stroke:#000000;stroke-width:3.5;stroke-linecap:butt;stroke-linejoin:miter;stroke-miterlimit:4;stroke-dasharray:none;stroke-opacity:1" />
    <path
       id="path4792"
       d="m 93.264197,571.49193 c -15.345767,10.29382 -20.92927,18.65577 -28.866307,37.3141 -11.459857,32.01427 4.821758,60.6524 22.56575,81.01885"
       style="fill:none;fill-rule:evenodd;stroke:#000000;stroke-width:3.5;stroke-linecap:butt;stroke-linejoin:miter;stroke-miterlimit:4;stroke-dasharray:none;stroke-opacity:1" />
  </g>
  <g
     style="display:inline"
     transform="translate(0,400)"
     id="layer3">
    <path
       id="path5692"
       d="m 141.36302,75.98543 c -7.46629,-8.200769 -19.3521,0.190099 -20.08921,9.140218 -0.74124,7.482795 5.11475,15.316672 11.51125,19.102742 6.59841,3.81471 20.08321,-2.66222 17.05848,-10.04746 l -0.71183,-0.832491"
       style="opacity:1;fill:#d4d4d4;fill-opacity:1;fill-rule:nonzero;stroke:#000000;stroke-width:2.5;stroke-linecap:butt;stroke-linejoin:miter;stroke-miterlimit:4;stroke-dasharray:none;stroke-dashoffset:4.92000008;stroke-opacity:1" />
    <path
       id="path5694"
       d="m 149.84714,96.964966 c -2.78311,5.936794 0.56087,13.721744 5.48421,16.395464 5.54871,3.86048 13.55814,4.26103 18.31789,-1.41624 3.7239,-3.21787 5.75844,-9.43833 3.12309,-14.263632 -2.69881,-5.661396 -8.76079,-8.083161 -14.11841,-7.23053 -0.59309,-0.07162 -1.18148,-0.188268 -1.77652,-0.239921"
       style="opacity:1;fill:#d4d4d4;fill-opacity:1;fill-rule:nonzero;stroke:#000000;stroke-width:2.5;stroke-linecap:butt;stroke-linejoin:miter;stroke-miterlimit:4;stroke-dasharray:none;stroke-dashoffset:4.92000008;stroke-opacity:1" />
    <path
       id="path5696"
       d="m 174.02147,94.761719 c 4.08957,6.525301 14.0376,5.090938 18.21234,-0.602719 4.4947,-5.001202 5.09102,-11.999368 3.26733,-18.585349 -1.51182,-7.17225 -6.11307,-12.15192 -11.62004,-7.064622 -3.85138,2.995881 -5.98552,-1.181808 -2.24789,-3.791382 4.08243,-3.747958 5.09132,-7.495431 2.54094,-12.381982 -3.74561,-6.080145 -7.84466,-9.371487 -15.3643,-5.487906 -4.06053,2.882974 -5.3425,8.248125 -3.42348,14.085497"
       style="opacity:1;fill:#d4d4d4;fill-opacity:1;fill-rule:nonzero;stroke:#000000;stroke-width:2.5;stroke-linecap:butt;stroke-linejoin:miter;stroke-miterlimit:4;stroke-dasharray:none;stroke-dashoffset:4.92000008;stroke-opacity:1" />
    <path
       id="path5698"
       d="m 157.28658,65.284824 c 3.76618,-5.026654 4.90998,-8.815342 3.51983,-14.05993 -2.64132,-6.138527 -9.6954,-10.445246 -15.06666,-6.497411 -2.74429,2.487386 -5.80907,4.702606 -8.04483,7.843669 -2.93501,4.741669 -1.99085,10.033453 1.69724,13.833793 1.17549,1.348091 3.75895,1.96188 5.21145,2.84783"
       style="opacity:1;fill:#d4d4d4;fill-opacity:1;fill-rule:nonzero;stroke:#000000;stroke-width:2.5;stroke-linecap:butt;stroke-linejoin:miter;stroke-miterlimit:4;stroke-dasharray:none;stroke-dashoffset:4.92000008;stroke-opacity:1" />
  </g>
  <g
     transform="translate(0,400)"
     style="display:inline"
     id="layer2">
    <path
       id="path4147"
       d="m 144.23995,70.352309 c -6.69119,4.506937 -6.55135,14.627017 -1.68386,20.439634 7.89364,11.332947 27.22406,10.756597 34.53155,-0.867608 2.69013,-4.0568 3.14654,-7.468222 -0.90755,-15.750072 -6.34522,-11.409294 -9.84757,-16.357167 -18.87942,-14.764716 -5.64386,1.354765 -11.21843,5.231325 -13.06072,10.942762 z"
       style="opacity:1;fill:#ff8360;fill-opacity:1;fill-rule:nonzero;stroke:#000000;stroke-width:2.36236668;stroke-linecap:butt;stroke-linejoin:miter;stroke-miterlimit:4;stroke-dasharray:none;stroke-dashoffset:4.92000008;stroke-opacity:1" />
    <path
       id="path5560"
       d="m 24.432151,1042.3995 65.096202,-8.7757 -8.986361,18.7383 -49.600093,0 z"
       style="display:inline;opacity:1;fill:#898989;fill-opacity:1;fill-rule:nonzero;stroke:none;stroke-width:2.5;stroke-linecap:butt;stroke-linejoin:miter;stroke-miterlimit:4;stroke-dasharray:none;stroke-dashoffset:4.92000008;stroke-opacity:1"
       transform="translate(0,-902.36214)" />
  </g>
  <g
     transform="translate(0,400)"
     style="display:inline"
     id="layer4">
    <rect
       y="-415.18222"
       x="-20.132664"
       height="607.27777"
       width="301.98987"
       id="rect5225"
       style="opacity:0.86600001;fill:#eaeae9;fill-opacity:1;fill-rule:nonzero;stroke:none;stroke-width:3.5;stroke-linecap:butt;stroke-linejoin:miter;stroke-miterlimit:4;stroke-dasharray:none;stroke-dashoffset:4.92000008;stroke-opacity:1" />
  </g>
</svg>
